<?xml version="1.0" encoding="iso-8859-1"?>
<!-- Generator: Adobe Illustrator 19.0.0, SVG Export Plug-In . SVG Version: 6.00 Build 0)  -->
<svg xmlns="http://www.w3.org/2000/svg" xmlns:xlink="http://www.w3.org/1999/xlink" version="1.1" id="Capa_1" x="0px" y="0px" viewBox="0 0 480.218 480.218" style="enable-background:new 0 0 480.218 480.218;" xml:space="preserve" width="512px" height="512px">
<g>
	<g>
		<path d="M416.123,24c0-4.418-3.582-8-8-8h-112V8c0-4.418-3.582-8-8-8s-8,3.582-8,8v8h-120V8c0-4.418-3.582-8-8-8s-8,3.582-8,8v8    h-16V8c0-4.418-3.582-8-8-8s-8,3.582-8,8v8h-40c-4.418,0-8,3.582-8,8v416c-0.003,2.147,0.863,4.205,2.4,5.704    c-5.804,11.917-0.849,26.282,11.068,32.086c11.917,5.804,26.282,0.849,32.086-11.068c2.849-5.85,3.201-12.607,0.974-18.722    h258.944c-0.948,2.562-1.445,5.268-1.472,8c-0.091,13.255,10.581,24.073,23.835,24.164c13.255,0.091,24.073-10.581,24.164-23.835    c0.025-3.679-0.796-7.314-2.399-10.624c1.537-1.499,2.403-3.557,2.4-5.704V24z M304.123,88v24c0,8.837-7.163,16-16,16    s-16-7.163-16-16V88H304.123z M232.123,136h-24V88h48v24c0,17.673,14.327,32,32,32c17.673,0,32-14.327,32-32V88h48v48h-24    c-4.418,0-8,3.582-8,8v96h-96v-96C240.123,139.582,236.542,136,232.123,136z M160.123,80v144    c-0.012,10.168-6.418,19.229-16,22.632V224V80H160.123z M128.123,32h16v32h-16V32z M128.123,80v144    c-0.012,10.168-6.418,19.229-16,22.632V80H128.123z M88.123,464c-4.418,0-8-3.582-8-8s3.582-8,8-8s8,3.582,8,8    S92.542,464,88.123,464z M392.123,464c-4.418,0-8-3.582-8-8s3.582-8,8-8s8,3.582,8,8S396.542,464,392.123,464z M400.123,432h-320    v-32h320V432z M128.123,336h80c4.418,0,8,3.582,8,8s-3.582,8-8,8h-80c-4.418,0-8-3.582-8-8S123.705,336,128.123,336z M120.123,312    c0-4.418,3.582-8,8-8h80c4.418,0,8,3.582,8,8s-3.582,8-8,8h-80C123.705,320,120.123,316.418,120.123,312z M128.123,368h80    c4.418,0,8,3.582,8,8s-3.582,8-8,8h-80c-4.418,0-8-3.582-8-8S123.705,368,128.123,368z M272.123,336h80c4.418,0,8,3.582,8,8    s-3.582,8-8,8h-80c-4.418,0-8-3.582-8-8S267.705,336,272.123,336z M264.123,312c0-4.418,3.582-8,8-8h80c4.418,0,8,3.582,8,8    s-3.582,8-8,8h-80C267.705,320,264.123,316.418,264.123,312z M272.123,368h80c4.418,0,8,3.582,8,8s-3.582,8-8,8h-80    c-4.418,0-8-3.582-8-8S267.705,368,272.123,368z M400.123,384h-25.472c3.078-8.263,1.219-17.556-4.8-24    c8.32-9.044,8.32-22.956,0-32c8.894-9.75,8.2-24.864-1.55-33.758c-4.421-4.033-10.194-6.26-16.178-6.242h-80    c-13.197-0.058-23.943,10.593-24.002,23.79c-0.027,5.995,2.201,11.781,6.242,16.21c-8.32,9.044-8.32,22.956,0,32    c-6.019,6.444-7.878,15.737-4.8,24h-18.912c3.078-8.263,1.219-17.556-4.8-24c8.32-9.044,8.32-22.956,0-32    c8.894-9.75,8.2-24.864-1.55-33.758c-4.421-4.033-10.194-6.26-16.178-6.242h-80c-13.197-0.058-23.943,10.593-24.002,23.79    c-0.027,5.995,2.201,11.781,6.242,16.21c-8.32,9.044-8.32,22.956,0,32c-6.019,6.444-7.878,15.737-4.8,24h-25.44V32h32v32h-8    c-4.418,0-8,3.582-8,8v184c0,4.418,3.582,8,8,8c8.684-0.029,17.117-2.914,24-8.208V256c0,4.418,3.582,8,8,8    c22.08-0.026,39.974-17.92,40-40V72c0-4.418-3.582-8-8-8h-8V32h120v40h-80c-4.418,0-8,3.582-8,8v64c0,4.418,3.582,8,8,8h24v96    c0,4.418,3.582,8,8,8h112c4.418,0,8-3.582,8-8v-96h24c4.418,0,8-3.582,8-8V80c0-4.418-3.582-8-8-8h-80V32h104V384z" fill="#FFFFFF"/>
	</g>
</g>
<g>
</g>
<g>
</g>
<g>
</g>
<g>
</g>
<g>
</g>
<g>
</g>
<g>
</g>
<g>
</g>
<g>
</g>
<g>
</g>
<g>
</g>
<g>
</g>
<g>
</g>
<g>
</g>
<g>
</g>
</svg>
