<?xml version="1.0" encoding="iso-8859-1"?>
<!-- Generator: Adobe Illustrator 18.0.0, SVG Export Plug-In . SVG Version: 6.00 Build 0)  -->
<!DOCTYPE svg PUBLIC "-//W3C//DTD SVG 1.1//EN" "http://www.w3.org/Graphics/SVG/1.1/DTD/svg11.dtd">
<svg xmlns="http://www.w3.org/2000/svg" xmlns:xlink="http://www.w3.org/1999/xlink" version="1.1" id="Capa_1" x="0px" y="0px" viewBox="0 0 199.002 199.002" style="enable-background:new 0 0 199.002 199.002;" xml:space="preserve" width="512px" height="512px">
<g>
	<path d="M192.876,18.056c-3.829-0.48-7.336,2.234-7.82,6.07L178.4,76.958c-1.052-0.129-2.097-0.218-3.125-0.218   c-4.015,0-8.052,0.938-12.342,2.867c-3.614,1.625-7.038,3.802-10.357,5.912c-3.028,1.925-5.889,3.744-8.587,4.957   c-2.446,1.101-4.605,1.635-6.601,1.635s-4.154-0.535-6.602-1.635c-2.697-1.213-5.558-3.032-8.594-4.962   c-1.475-0.938-2.978-1.884-4.504-2.795l36.537-61.126c1.983-3.318,0.901-7.616-2.417-9.6c-3.321-1.985-7.616-0.902-9.601,2.417   l-37.54,62.803c-1.47-0.289-3.042-0.473-4.744-0.473c-1.789,0-3.656,0.203-5.532,0.571L56.794,14.41   c-1.985-3.319-6.283-4.402-9.601-2.417c-3.318,1.983-4.4,6.281-2.417,9.6l36.537,61.126c-1.528,0.912-3.033,1.86-4.512,2.8   c-3.028,1.925-5.889,3.744-8.587,4.957c-2.446,1.101-4.605,1.635-6.601,1.635s-4.154-0.535-6.602-1.635   c-2.697-1.213-5.558-3.032-8.594-4.962c-3.312-2.105-6.735-4.282-10.35-5.907c-4.29-1.929-8.327-2.867-12.342-2.867   c-1.028,0-2.074,0.089-3.125,0.218l-6.656-52.832c-0.483-3.835-3.995-6.549-7.82-6.07c-3.836,0.483-6.554,3.984-6.07,7.82   l13.826,109.748c1.68,13.327,13.075,23.377,26.508,23.377h15.39L44.776,177.41c-1.983,3.318-0.901,7.616,2.417,9.6   c1.126,0.673,2.363,0.993,3.585,0.993c2.382,0,4.704-1.216,6.016-3.41l15.297-25.591h54.82l15.297,25.591   c1.312,2.193,3.634,3.41,6.016,3.41c1.222,0,2.46-0.32,3.585-0.993c3.318-1.983,4.4-6.281,2.417-9.6l-11.003-18.409h15.39   c13.433,0,24.828-10.05,26.508-23.377l13.826-109.748C199.43,22.04,196.712,18.539,192.876,18.056z M40.39,145.001   c-6.394,0-11.818-4.784-12.617-11.127L22.35,90.831c0.467-0.055,0.928-0.091,1.378-0.091c1.994,0,4.153,0.535,6.602,1.635   c2.694,1.212,5.553,3.029,8.586,4.958c3.313,2.106,6.74,4.285,10.356,5.911c8.578,3.857,16.108,3.857,24.685,0   c3.617-1.626,7.044-3.805,10.365-5.916c1.429-0.909,2.818-1.788,4.173-2.597l2.852,4.77l-27.197,45.5H40.39z M80.459,145.001   l19.042-31.856l19.042,31.856H80.459z M158.612,145.001h-23.759l-27.197-45.5l2.852-4.77c1.356,0.809,2.748,1.69,4.181,2.602   c3.313,2.106,6.74,4.285,10.356,5.911c4.289,1.929,8.327,2.867,12.343,2.867s8.054-0.938,12.342-2.867   c3.617-1.626,7.044-3.805,10.365-5.916c3.025-1.924,5.884-3.741,8.578-4.953c2.448-1.1,4.607-1.635,6.602-1.635   c0.45,0,0.911,0.037,1.378,0.091l-5.423,43.043C170.431,140.218,165.006,145.001,158.612,145.001z" fill="#FFFFFF"/>
</g>
<g>
</g>
<g>
</g>
<g>
</g>
<g>
</g>
<g>
</g>
<g>
</g>
<g>
</g>
<g>
</g>
<g>
</g>
<g>
</g>
<g>
</g>
<g>
</g>
<g>
</g>
<g>
</g>
<g>
</g>
</svg>
