<?xml version="1.0" encoding="iso-8859-1"?>
<!-- Generator: Adobe Illustrator 19.0.0, SVG Export Plug-In . SVG Version: 6.00 Build 0)  -->
<svg xmlns="http://www.w3.org/2000/svg" xmlns:xlink="http://www.w3.org/1999/xlink" version="1.1" id="Capa_1" x="0px" y="0px" viewBox="0 0 490.291 490.291" style="enable-background:new 0 0 490.291 490.291;" xml:space="preserve" width="512px" height="512px">
<g>
	<g>
		<g>
			<polygon points="396.3,369.329 379.1,436.629 485.7,405.129 434.8,358.029    " fill="#ee312c"/>
			<path d="M234.9,346.029v-322.8C105,23.629,0,128.629,0,258.129v163.7h161c0-0.4,0-0.8,0-1.6     C161,379.829,194,346.429,234.9,346.029z" fill="#ee312c"/>
			<path d="M390.4,350.329l38.9-11.3l-40.8-137.7l24.1-7l-5.4-18.7l-24.1,7l-10.1-34.6l-9.3,2.7c0,0-15.6-23.8-8.6-36.2     c8.7-15.2,74.3-6.6,99.2-7.8c30.4-0.8,37.3-24.1,35.8-37.7c-1.2-10.1-6.6-19.8-15.2-28.4c-57.1-44.3-204.3-18.2-219.8-8.1v26.8     c14.8-13.2,158.9-36.2,204.9-3.1c7.3,5.5,19.6,30-7,28.8c-24.1,1.6-100.4-14.9-117.4,19.8c-9,26.2,7.4,51.3,7.4,51.3l-8.9,2.7     l10.5,36.2l-28.8,8.6l5.4,18.7l28.8-8.6L390.4,350.329z" fill="#ee312c"/>
			<path d="M235.6,365.829c-30.3,0-54.4,24.5-54.4,54.4c0,30.3,24.5,54.4,54.4,54.4c30.3,0,54.4-24.5,54.4-54.4     C290.1,390.329,265.6,365.829,235.6,365.829z M235.6,446.729c-14.4,0-26.1-11.7-26.1-26.1s11.7-26.1,26.1-26.1     c14.4,0,26.1,11.7,26.1,26.1S250,446.729,235.6,446.729z" fill="#ee312c"/>
		</g>
	</g>
</g>
<g>
</g>
<g>
</g>
<g>
</g>
<g>
</g>
<g>
</g>
<g>
</g>
<g>
</g>
<g>
</g>
<g>
</g>
<g>
</g>
<g>
</g>
<g>
</g>
<g>
</g>
<g>
</g>
<g>
</g>
</svg>
