<?xml version="1.0" encoding="utf-8"?>
<!-- Generator: Adobe Illustrator 16.0.0, SVG Export Plug-In . SVG Version: 6.00 Build 0)  -->
<!DOCTYPE svg PUBLIC "-//W3C//DTD SVG 1.1//EN" "http://www.w3.org/Graphics/SVG/1.1/DTD/svg11.dtd">
<svg version="1.1" id="Layer_1" xmlns="http://www.w3.org/2000/svg" xmlns:xlink="http://www.w3.org/1999/xlink" x="0px" y="0px"
	 width="800px" height="339.258px" viewBox="0 0 800 339.258" enable-background="new 0 0 800 339.258" xml:space="preserve">
<path d="M789.313,332.197h-26.29c-36.961,0-66.04-11.072-87.232-33.217c-21.188-22.147-31.785-48.037-31.785-77.675
	c0-29.317,10.519-55.049,31.547-77.19c21.029-22.146,50.188-33.223,87.471-33.223h26.29c11.527-0.356,13.538,18.962,0,19.6h-26.29
	c-29.317,0-52.897,9.236-70.742,27.72c-17.845,18.482-26.765,39.511-26.765,63.093c0,25.494,8.603,47.082,25.811,64.769
	c17.206,17.682,41.104,26.527,71.696,26.527h26.29C802.089,313.454,799.385,331.729,789.313,332.197z"/>
<path d="M568.54,110.881h26.29c36.961,0,66.04,11.071,87.232,33.218c21.188,22.146,31.783,48.035,31.783,77.675
	c0,29.315-10.516,55.048-31.545,77.188c-21.029,22.146-50.188,33.224-87.471,33.224h-26.29c-10.867-1.22-12.826-17.828,0-19.601
	h26.29c29.316,0,52.898-9.237,70.742-27.719c17.847-18.484,26.765-39.513,26.765-63.093c0-25.495-8.603-47.083-25.81-64.771
	c-17.209-17.681-41.104-26.527-71.697-26.527h-26.29C555.635,130.143,554.754,111.412,568.54,110.881z"/>
<path d="M536.26,332.197c-0.977,8.879-19.827,9.936-19.596,0V110.893c0.26-9.902,18.286-11.884,19.596,0V332.197z"/>
<path fill="#F172AC" d="M563.471,40.467c0,10.177-4.03,19.513-12.088,28.006c-8.072,8.479-17.619,12.718-28.637,12.718
	c-9.336,0-18.25-3.818-26.729-11.456c-8.494-7.636-12.733-17.393-12.733-29.269c0-9.336,3.818-18.235,11.456-26.729
	c7.636-8.479,16.971-12.733,28.007-12.733c9.335,0,18.233,3.608,26.729,10.824C557.953,19.044,562.628,28.59,563.471,40.467z"/>
<rect x="432.057" width="20.556" height="332.197"/>
<path d="M369.772,289.119c-17.14,26.101-40.83,41.422-71.071,45.966c-30.238,4.538-57.872-1.411-82.91-17.852
	c-26.37-17.315-42.714-41.198-49.02-71.645c-6.314-30.445-0.371-59.521,17.819-87.221c17.315-26.37,41.194-42.708,71.644-49.02
	c30.445-6.314,58.855-0.808,85.225,16.508c20.509,13.467,34.369,30.382,41.582,50.748c7.213,20.364,10.198,37.007,8.965,49.92
	l-188.928-2.264c-7.002-0.876-7.626-17.697,0.163-17.527l167.027,1.512c0.212-7.863-2.931-18.606-9.436-32.211
	c-6.502-13.61-16.546-24.88-30.128-33.798c-22.377-14.694-45.92-19.477-70.631-14.355c-24.709,5.117-44.411,18.871-59.102,41.243
	c-14.341,21.839-18.97,45.868-13.883,72.084c5.09,26.21,18.155,46.229,39.196,60.048c25.039,16.44,49.663,20.885,73.866,13.338
	c24.212-7.551,41.823-19.713,52.842-36.494C360.675,270.638,377.248,278.67,369.772,289.119z"/>
<path d="M27.972,338.209H7.897c0.847-32.241-0.604-83.563-0.243-136.013C8.281,111.785,14.83,27.889,127.489,13.611
	c18.28-3.534,23.992,12.956,7.214,17.393c-106.873,8.406-107.048,115.5-107.482,175.82l107.713-0.028
	c17.721-0.299,14.582,20.916-0.237,20.302l-106.726,0.908V338.209z"/>
</svg>
